# xmcd CD database file
#
# Track frame offsets:
#	150
#	16293
#	30968
#	55524
#	70305
#	86242
#	104581
#	121564
#	139128
#	160584
#	182244
#	202214
#	222126
#	237032
#	253466
#	268990
#
# Disc length: 3819 seconds
#
# Revision: 3
# Processed by: cddbd v1.4PL0 Copyright (c) Steve Scherf et al.
# Submitted via: CDex 1.40Release
#
DISCID=e50ee910
DTITLE=Modern Talking - America
DYEAR=1900
DGENRE=
TTITLE0=Track: 1
TTITLE1=Track: 2
TTITLE2=Track: 3
TTITLE3=Track: 4
TTITLE4=Track: 5
TTITLE5=Track: 6
TTITLE6=Track: 7
TTITLE7=Track: 8
TTITLE8=Track: 9
TTITLE9=Track: 10
TTITLE10=Track: 11
TTITLE11=Track: 12
TTITLE12=Track: 13
TTITLE13=Track: 14
TTITLE14=Track: 15
TTITLE15=Track: 16
EXTD=
EXTT0=
EXTT1=
EXTT2=
EXTT3=
EXTT4=
EXTT5=
EXTT6=
EXTT7=
EXTT8=
EXTT9=
EXTT10=
EXTT11=
EXTT12=
EXTT13=
EXTT14=
EXTT15=
PLAYORDER=
